<svg width="24" height="24" viewBox="0 0 24 24" fill="none" xmlns="http://www.w3.org/2000/svg">
  <!-- 火箭主体：基于用户提供的高清原图进行高精度还原 -->
  <path d="M12 2C12 2 12 2 12 2C10.5 2 7 6 7 12V14C7 14.5 7.5 15 8 15H16C16.5 15 17 14.5 17 14V12C17 6 13.5 2 12 2Z" stroke="currentColor" stroke-width="1.5" stroke-linecap="round" stroke-linejoin="round"/>
  <!-- 火箭头部横线 -->
  <path d="M7.5 6.5C8.5 5.5 10 4.5 12 4.5C14 4.5 15.5 5.5 16.5 6.5" stroke="currentColor" stroke-width="1.5" stroke-linecap="round" stroke-linejoin="round"/>
  <!-- 火箭中间的圆窗 -->
  <circle cx="12" cy="10" r="1.5" stroke="currentColor" stroke-width="1.5"/>
  <!-- 侧翼细节：左侧 -->
  <path d="M7 11L4 14V18L7 16" stroke="currentColor" stroke-width="1.5" stroke-linecap="round" stroke-linejoin="round"/>
  <!-- 侧翼细节：右侧 -->
  <path d="M17 11L20 14V18L17 16" stroke="currentColor" stroke-width="1.5" stroke-linecap="round" stroke-linejoin="round"/>
  <!-- 底部喷火效果 -->
  <path d="M10 17V21M12 18V22M14 17V21" stroke="currentColor" stroke-width="1.5" stroke-linecap="round" stroke-linejoin="round"/>
</svg>
